<?xml version="1.0" encoding="utf-8"?>
<!-- Generator: Adobe Illustrator 24.0.1, SVG Export Plug-In . SVG Version: 6.00 Build 0)  -->
<svg version="1.1" id="Layer_1" xmlns="http://www.w3.org/2000/svg" xmlns:xlink="http://www.w3.org/1999/xlink" x="0px" y="0px"
	 viewBox="0 0 595.3 841.9" style="enable-background:new 0 0 595.3 841.9;" xml:space="preserve">
<style type="text/css">
	.st0{fill:#FFFFFF;}
	.st1{fill:#DB3136;}
	.st2{fill:#23408E;}
	.st3{fill:#C0D2E4;}
	.st4{fill:#23408F;}
	.st5{fill:#DB3036;}
	.st6{fill:#23418F;}
	.st7{fill:#24418F;}
	.st8{fill:#C0D3E4;}
	.st9{fill:#274390;}
	.st10{fill:#2B3687;}
	.st11{fill:#DB3137;}
	.st12{fill:#DC282C;}
	.st13{fill:#DA2127;}
	.st14{fill:#DB353B;}
	.st15{fill:#263D8C;}
	.st16{fill:#DB343B;}
	.st17{fill:#2B3586;}
	.st18{fill:#DC2830;}
	.st19{fill:#2A3688;}
	.st20{fill:#DB302B;}
	.st21{fill:#283A8A;}
	.st22{fill:#273B8A;}
	.st23{fill:#D9302B;}
	.st24{fill:#DA2227;}
	.st25{fill:#2B3386;}
	.st26{fill:#2D4390;}
	.st27{fill:#2B3689;}
	.st28{fill:#DB262E;}
	.st29{fill:#D92127;}
	.st30{fill:#DB292D;}
	.st31{fill:#DA2629;}
	.st32{fill:#DA2329;}
	.st33{fill:#DB2D2E;}
	.st34{fill:#DA2328;}
	.st35{fill:#DA292A;}
	.st36{fill:#DB262B;}
	.st37{fill:#DA252B;}
	.st38{fill:#F7F7FA;}
	.st39{fill:#DC2A31;}
</style>
<g>
	<path class="st0" d="M297.8,635.8c-83.9,0-167.9,0-251.8,0.1c-3.7,0-4.3-0.9-4.3-4.4c0.1-140.4,0.1-280.8,0-421.2
		c0-3.4,0.4-4.4,4.2-4.4c167.9,0.1,335.8,0.1,503.7,0c3.5,0,4,0.8,4,4.1c-0.1,140.6-0.1,281.1,0,421.7c0,4.1-1.4,4.1-4.5,4.1
		C465.3,635.8,381.5,635.8,297.8,635.8z"/>
	<path class="st1" d="M326.1,339.4c-1.5-4.7-0.3-9.5-0.6-14.2c-0.1-2.3,1.6-2.1,3.1-2c20.1,1.1,38.7,6.7,55,18.8
		c17.5,12.9,30.1,29.5,36.8,50.4c1.3,4.2,3,8.4,2.4,13c1,1.2-0.3,2.9,1,4c0.5,0.6,1,1.2,0.8,2.1c-0.8,2.4-0.2,4.9-0.4,7.3
		c0,2.8,0,5.6,0,8.3c0,2.2,0,4.3,0,6.5c-0.1,2.2-2,4.3-0.5,6.7c-0.5,2.8-0.3,5.6-1.9,8.1c-0.4-0.3-0.5-0.7-0.5-1.2
		c-0.1,1-0.2,2,0.2,3c-2.4,8.7-6,16.9-10.5,24.7c-1.6,2.7-2.9,4-5.9,1.6c-3-2.5-8-3.9-9.3-7c-0.9-2.3,2.9-6.4,4.5-9.7
		c4.5-9,7.1-18.6,8.4-28.6c0.9,1,0.5,2.2,0.6,3.6c0-1.5,0.3-2.6-0.6-3.6c3.1-41-20.9-76.2-60-88.4c-4.5-1.4-9.2-2.1-13.8-3.1
		C332.1,338.6,329.1,339.3,326.1,339.4z"/>
	<path class="st2" d="M402.5,339.8c-11.8-10.3-24.8-18.5-39.7-23.7c-10.7-3.7-21.6-5.9-32.9-6.2c-3.9-0.1-4.9-1.2-4.5-4.8
		c0.3-2.6,0.3-5.3,0-8c-0.3-3.4,1-4.3,4.2-4.1c27.4,1.7,52.6,9.7,74.4,26.7c26.5,20.6,43,47.5,49.4,80.4c0.6,3.2,0.3,5-4,5.6
		c-11.1,1.5-11,1.9-13.6-8.7c-4.7-19.3-14-36.2-27.1-51.1C407.4,343.2,405.4,341.1,402.5,339.8z"/>
	<path class="st1" d="M441.7,442.6c2.7,2,5.9,0.4,8.8,1.4c1.3,0.5,3.7-0.4,3,2.5c-1,1.2-0.8,2.6-0.6,4c-3.1,16.5-9.8,31.4-19,45.3
		c-13.6,20.5-31.8,35.5-54,45.8c-11.7,5.5-24.1,8.8-36.9,10.4c-1.3-0.5-2.7-0.8-4,0.1c-3.4,1.8-7.2,0.6-10.7,0.9
		c-1.4,0.1-2.2-0.4-2.2-2c0-0.5-0.1-1,0-1.5c0.7-4.4-2.3-10.2,1.5-12.9c3.2-2.3,8.6-0.5,13.1-1.2c34.3-4.8,60.8-21.7,80-50.2
		c7.9-11.7,13.2-24.5,16.1-38.4c0.1-0.6,0.6-1.1,0.9-1.7C438.4,443.4,439.9,442.7,441.7,442.6z"/>
	<path class="st2" d="M290.8,425.1c2.2-8.5,4.4-16.9,6.4-25.4c0.7-3.1,1.7-4.5,5.2-4.2c4.5,0.3,9,0.2,13.5,0
		c2.5-0.1,3.5,0.5,3.4,3.2c-0.1,15.1-0.1,30.2,0,45.4c0,2.6-0.7,3.3-3.3,3.4c-9.8,0.2-9.8,0.3-9.8-9.3c0-8.9,0-17.8,0-26.7
		c-0.2,0-0.5-0.1-0.7-0.1c-2.7,10.5-5.6,21-8,31.6c-0.8,3.3-1.9,4.6-5.5,4.5c-7.5-0.3-7.5-0.1-9.3-7.1c-2.1-8.4-4.2-16.7-6.4-25.1
		c-0.3-1.4-0.3-2.9-1.9-4.1c0,10.9-0.1,21.5,0.1,32.1c0,3-0.4,4.3-4,4.3c-9.1-0.1-9.1,0.1-9.1-9.1c0-13,0.1-25.9-0.1-38.9
		c-0.1-3.4,1-4.3,4.2-4.1c4.1,0.3,8.3,0.3,12.5,0c3.2-0.2,4.6,0.7,5.4,4c1.7,7.8,3.9,15.4,5.9,23.1
		C289.4,423.5,289.2,424.6,290.8,425.1z"/>
	<path class="st2" d="M377.8,418.6c-2.2-6.8-3-14.1-7-20.3c-0.6-1-1.1-2-1.8-3c-3.5-5.5-3.5-5.5,1.9-9.6c6.9-5.3,6.9-5.3,11.8,2.2
		c20.7,31.8,8.1,77.9-25.8,94.8c-8.7,4.4-17.7,7.1-27.5,7.8c-3.3,0.2-4.4-0.8-4.1-4.1c0.3-3.5-0.9-7.5,0.5-10.3c1.6-3,6.1-1,9.2-1.8
		c21.3-5.2,35.1-18,40.8-39.3c0.2-0.6,0.6-1.1,0.9-1.6C378.2,428.5,379.3,423.7,377.8,418.6z"/>
	<path class="st1" d="M359.8,430.4c-3.2,14.8-14.6,25.5-29.4,27.8c-3.4,0.5-5,0-5-4.2c0.2-20.6,0.2-41.2,0-61.7c0-3.6,1-4.5,4.5-4
		c12.6,1.6,27.1,11.1,29.9,28.2c-0.4,1-0.9,2,0.1,2.9c1.4,2.4,1.3,4.9,0.2,7.3C359.3,427.7,359.3,428.1,359.8,430.4z"/>
	<path class="st2" d="M240.9,425.6c8.8,4.5,10.2,13.9,15.8,21.7c-6.3,0-11.6,0-17,0c-2,0-2.4-1.6-3.1-2.8c-2.2-3.9-4.3-7.8-6.5-11.8
		c-0.9-1.6-1.8-3.2-3.3-4.3c-1.3-0.9-2.7-1.5-4.2-1c-1.7,0.6-0.9,2.3-0.9,3.5c-0.1,4.5-0.1,9,0,13.4c0.1,2.1-0.6,3.2-2.8,2.9
		c-0.2,0-0.3,0-0.5,0c-12.6,0.6-12.6,0.6-12.6-12c0-12,0.1-23.9-0.1-35.9c-0.1-3.3,1-4.2,4.2-4.1c9.8,0.5,19.6-0.7,29.3,0.6
		c7.9,1.1,12,5.2,12.8,12.2c0.9,7.6-2.4,13.3-9.4,16.3C242.2,424.9,241.6,425.2,240.9,425.6z"/>
	<path class="st2" d="M174.3,448.4c-7.5-0.4-15.1-0.6-19.9-7.9c-1-1.5-1.7-3.2-2.4-4.9c-1.8-3.9-0.4-5.7,3.8-5.6
		c1.5,0,3.1,0.3,4.5-0.1c3.7-1,6-0.6,7.1,3.8c0.8,3.3,4,4.6,7.5,4.7c3.3,0,6.2-1,7-4.3c0.9-3.7-1.9-5.4-4.9-6.4
		c-3.9-1.3-8-2-11.9-3.4c-8.6-2.9-12.7-8.3-12.1-15.5c0.6-7.3,5.8-12.2,14.7-13.8c5.5-1,10.9-0.8,16.3,0.5c6,1.5,9.9,5.1,11.5,11.2
		c0.5,2.1,0,3.1-2.3,3.1c-3,0.1-6,0.3-8.9,0.6c-2.1,0.2-3.1-0.6-4.1-2.5c-1.9-3.7-5.5-4-9.1-3.2c-1.7,0.4-3.1,1.5-3.3,3.3
		c-0.2,2,1.2,3.1,2.9,3.6c2.5,0.8,5.1,1.3,7.7,2c2.7,0.8,5.4,1.5,8,2.5c8.2,3.2,11.6,7.9,11.2,15.6c-0.4,7.4-5.6,13.6-13.3,15.5
		C181,448,177.7,448.8,174.3,448.4z"/>
	<path class="st3" d="M325.1,514.8c0-1.3,0.1-2.7,0-4c-0.3-3.5,1.4-4.6,4.7-4.6c15.6,0,29.6-5.3,42.3-13.9c2.7-1.8,3.7-1,5.1,0.9
		c0.5,0.7,0.9,1.4,1.3,2.1c6.2,9.1,6.3,9.1-3.2,14.7c-12.6,7.5-26.5,11.3-40.9,13.1C325.3,524.2,325.1,523.7,325.1,514.8z"/>
	<path class="st4" d="M142.4,421.7c0,7.5-0.1,14.9,0.1,22.4c0.1,2.6-0.7,3.3-3.3,3.4c-12.7,0.4-12.7,0.5-12.7-12.3
		c0-11.9,0.1-23.9-0.1-35.8c0-3,0.7-3.9,3.8-3.9c12.2,0,12.2-0.2,12.2,11.9C142.4,412.1,142.4,416.9,142.4,421.7z"/>
	<path class="st5" d="M254.2,331.6c9-0.4,18-0.5,27,0c1.7,2.5,1,5.4,0.9,8.1c-0.1,6.4,0.7,12.7-0.5,19.1c-1.2,1.8-3,1.8-4.9,1.8
		c-6.1,0-12.3-0.1-18.4,0.1c-3.5,0.1-5.2-1.1-5.1-4.9c0.2-6.8,0-13.6,0-20.4C253.2,334,253.3,332.7,254.2,331.6z"/>
	<path class="st3" d="M246.2,532.3c0-12.2,0-12.2,12.1-12.2c12.8,0,12.8,0,12.8,13c0,12,0,12-11.8,12c-0.2,0-0.3,0-0.5,0
		C246.2,545.1,246.2,545.1,246.2,532.3z"/>
	<path class="st2" d="M283.2,533.1c5.7-2,11.7-0.4,17.5-0.9c2-0.2,4,0,6,0c1.5,0,2.7,0.1,2.6,2c-0.1,7.6-0.1,15.3-0.2,22.9
		c0,0.2-0.7,0.5-1,0.7c-1.1-7.6-0.1-15.1-0.5-21.9c0,5.4,0,11.7,0,17.9c0,2.2-0.2,3.8-3.1,3.7c-6.8-0.3-13.6,0.3-20.3-0.3
		c-1.1-6.1-0.2-12.2-0.5-18.3C283.5,537,284.1,535,283.2,533.1z"/>
	<path class="st6" d="M244.2,307.8c-2.2-7.2-0.5-14.6-0.8-21.8c-0.1-1.6,1.7-1.1,2.8-1.1c6,0,11.9-0.1,17.9,0c1.2,0,3.1-0.6,2.9,1.5
		c-0.4,7.1,1.2,14.3-0.8,21.4C258.9,307,251.6,306.9,244.2,307.8z"/>
	<path class="st3" d="M306.1,312.2c0,11.5,0,11.5-11.3,11.5c-11.7,0-11.7,0-11.7-11.7c0-11.3,0-11.3,11.1-11.3c0.2,0,0.3,0,0.5,0
		C306.1,300.8,306.1,300.8,306.1,312.2z"/>
	<path class="st3" d="M326.1,363.9c0-7.6,0-7.9,7.6-7.1c8.5,0.8,16.5,3.4,23.9,7.7c0.4,0.2,1.2,0.4,1.2,0.7
		c0.9,5.1-3.9,7.5-5.4,11.5c-0.8,2.1-2.2,2-4,1.1c-5.9-3.2-12.1-5.2-18.9-5.4C324.4,372.2,326.4,367.3,326.1,363.9z"/>
	<path class="st1" d="M208.1,386.5c-7.8,1.3-15.7,1.2-23.5,0c0.3-0.8,0.7-1.4,1.7-1.2c0.3,0.4,0.8,0.7,1.3,0.7
		c5.1,0.1,10.2-0.2,15.3,0.1c-4.1-0.1-8.2,0-12.4-0.1c-1.6,0-3.4,0.6-4.6-1.1c-0.7-7.1-1.2-14.3,0.3-21.4c7-0.8,14-0.4,21-0.2
		c1.4,5.5,0.3,11.2,0.6,16.7C207.9,382.2,207.5,384.4,208.1,386.5z"/>
	<path class="st7" d="M215.5,339.7c0-10.1,0-10.1,10-10.1c10.8,0,10.8,0,10.8,10.7c0,9.6,0,9.6-9.4,9.6c-0.3,0-0.7,0-1,0
		C215.5,349.9,215.5,349.9,215.5,339.7z"/>
	<path class="st3" d="M223.3,468.5c0,8.8,0,8.8-9,8.8c-8.9,0-8.9,0-8.9-8.9c0-9,0-9,8.9-9C224.2,459.4,223.3,458.5,223.3,468.5z"/>
	<path class="st8" d="M240.2,369.6c9,0,9,0,9,8.8c0,9.9,0.9,9.1-9.1,9.1c-8.9,0-8.9,0-8.9-9C231.3,369.6,231.3,369.6,240.2,369.6z"
		/>
	<path class="st3" d="M201.4,327.5c0,9.2,0,9.2-9.2,9.2c-1.3,0-2.7-0.1-4,0c-3.2,0.3-4.2-1.2-3.9-4.1c0.1-0.7,0-1.3,0-2
		c0-12,0-11.8,11.9-12c4.3-0.1,5.7,1.4,5.1,5.4C201.3,325.2,201.4,326.3,201.4,327.5z"/>
	<path class="st2" d="M168.5,473.3c5.2-2.1,10.6-0.5,15.8-0.9c0.7,0,1.1,0.6,1.1,1.3c0,0.5,0,1,0.1,1.5c1,14.9,0.4,15.4-16.1,14.1
		C168.1,484,169.7,478.6,168.5,473.3z"/>
	<path class="st6" d="M215.3,296.8c4.7-0.4,9.3-0.7,14,0.1c0.8,4.9,0.8,9.8,0,14.6c-5,0.2-10,1.9-14.8-0.9
		C215.6,306.2,214,301.4,215.3,296.8z"/>
	<path class="st9" d="M218.2,519.1c-4.9,1.1-9.8,1.1-14.7,0c0.7-3.6,0.2-7.3,0.3-10.9c0-1-0.3-2.5,0.5-2.8c4-1.3,8.2-0.9,12.2-0.4
		c2.5,0.3,1.6,3.3,1.7,5.1C218.4,513.1,218.4,516.1,218.2,519.1z"/>
	<path class="st10" d="M291.4,480.1c-0.4,4.3,2.2,11.3-1,14.3c-2.8,2.6-9.7,0.8-14.8,0.9c-4.5,0.1-9-0.1-13.4,0.1
		c-2.5,0.1-3.1-0.8-3-3.1c0.1-8.8,0.1-17.6,0-26.3c0-2.5,1-3,3.2-3c8.6,0.1,17.2,0.1,25.8,0c2.7,0,3.4,0.9,3.3,3.4
		C291.2,470.6,291.4,474.9,291.4,480.1z"/>
	<path class="st11" d="M154.4,360.6c2,2.9,0.6,6.2,0.9,9.3c0.1,1.7-1.4,1.4-2.5,1.5c-9,0.8-10.8-1.4-8.7-10.6c0-0.1,0.3-0.1,0.4-0.2
		C147.8,361.4,151.1,361.5,154.4,360.6z"/>
	<path class="st12" d="M281.1,358.6c0-9,0-18,0-27c0.7-0.1,1.6,0,1.6,0.7c-0.2,9.7,1,19.4-0.6,29c-0.6-0.2-1.2-0.4-1.5-1.1
		C280.6,359.7,280.7,359.1,281.1,358.6z"/>
	<path class="st13" d="M281.1,360.6c0.3,0.3,0.6,0.5,1,0.8c-9.1,0.1-18.2,0.2-27.4,0.4c-1.7,0-2.8-0.3-2.7-2.4
		c0.1-8.8,0-17.6,0.1-26.4c0-0.7,0.3-1.2,1.1-1.4c1.1,8,0.4,16.1,0.4,24.1c0,3.4,0.8,4.5,4.4,4.5
		C265.7,360.2,273.4,359.5,281.1,360.6z"/>
	<path class="st14" d="M281.1,360.6c-7.9,0-15.9-0.1-23.8,0.1c-3.3,0.1-4.3-1.1-4.2-4.3c0.2-8.3,0-16.5,0-24.8c0.3,0,0.7,0,1,0
		c0,7.9,0.1,15.9-0.1,23.8c-0.1,3.3,1.1,4.5,4.3,4.2c7.5-0.6,15.2,1.1,22.7-1C281.1,359.3,281.1,360,281.1,360.6z"/>
	<path class="st15" d="M284.2,557.1c6,0,11.9-0.3,17.9,0.1c4.3,0.3,5.4-1.4,5.2-5.4c-0.3-5.8-0.1-11.7,0.9-17.5c0,7.9,0,15.8,0,23.7
		c-8,0-16,0-23.9,0c-0.3-0.2-0.4-0.4-0.3-0.6C284,557.2,284.1,557.1,284.2,557.1z"/>
	<path class="st16" d="M230.2,484.2c5.6-1.4,11.2-1.6,16.9,0.1c-0.9,4.9,0.1,9.8-0.5,14.7c-0.5,0.4-1,0.5-1.5,0.2
		c-1.9-2.8-1.2-6.1-1.2-9.2c0-3.6-1.8-4.5-5-4.4c-3,0-5.1,0.6-5.2,4.3c0,3.1,0.7,6.3-1.1,9.2c-0.5,0.4-1,0.4-1.6,0
		C230.2,494.2,231.6,489.1,230.2,484.2z"/>
	<path class="st17" d="M218.2,519.1c-1.8-3.3-0.7-6.8-0.8-10.2c-0.1-2.8-1-4-3.8-3.7c-0.3,0-0.7,0-1,0c-9.7,0.1-8-1-8.3,8.2
		c0,1.9,0.7,4-0.8,5.8c-1-4.3-0.2-8.6-0.5-12.9c-0.1-1.8,0.8-2.3,2.4-2.2c4.3,0.3,8.6-0.5,12.9,0.5
		C219.1,509.4,219.1,514.2,218.2,519.1L218.2,519.1z"/>
	<path class="st18" d="M245.2,499.2c0.3,0,0.7,0,1,0c0.4,0.2,0.7,0.5,0.7,1c-5.5,1.2-11,1.2-16.5,0c0.2-0.4,0.5-0.8,0.9-1
		c0.3,0,0.7,0,1,0C236.6,497,240.9,497,245.2,499.2z"/>
	<path class="st19" d="M284.2,557.1c0,0.3,0,0.6,0,0.8c-1.1,0-1.3-0.7-1.3-1.6c0.2-7.7-0.5-15.5,0.3-23.2c2.1,4.4,0.6,9,0.9,13.6
		C284.3,550.1,284.2,553.6,284.2,557.1z"/>
	<path class="st20" d="M207.3,363.6c-7,0-14,0-21,0c-0.3,0.3-0.6,0.5-1,0.6c-0.4-0.1-0.7-0.3-1-0.6c5.4-2.3,11.1-0.6,16.6-0.9
		c2.4-0.1,5.1-1.2,7.2,0.9C207.9,364.1,207.6,364.1,207.3,363.6z"/>
	<path class="st13" d="M184.4,363.6c0.3,0,0.7,0,1,0c0.8,7.3,0.7,14.6,0,21.9c-0.3,0.3-0.6,0.6-0.9,1
		C183.7,378.9,184.1,371.2,184.4,363.6z"/>
	<path class="st13" d="M207.3,363.6c0.3,0,0.6,0,0.9,0c0.2,7.6,0.5,15.3-0.1,22.9C206.4,378.9,207.8,371.2,207.3,363.6z"/>
	<path class="st21" d="M244.2,307.8c7.3-1.8,14.6-1.7,22-0.1C258.9,308.4,251.6,308.3,244.2,307.8z"/>
	<path class="st22" d="M377.8,418.6c2.2,5.1,1.3,10-1,14.8C377.2,428.5,377.5,423.5,377.8,418.6z"/>
	<path class="st23" d="M246.9,500.2c-0.2-0.3-0.5-0.7-0.7-1c0.5-5-1-10,0.8-14.9C247.3,489.6,247.5,494.9,246.9,500.2z"/>
	<path class="st24" d="M231.3,499.2c-0.3,0.3-0.6,0.7-0.9,1c-1-5.3-0.6-10.7-0.2-16C232.6,489.1,230.6,494.2,231.3,499.2z"/>
	<path class="st25" d="M168.5,473.3c1.9,5.2,0.4,10.7,0.9,16C167,484.1,168.7,478.6,168.5,473.3z"/>
	<path class="st9" d="M218.2,519c0-4.8,0-9.7,0.1-14.5C219.2,509.4,219.2,514.2,218.2,519z"/>
	<path class="st26" d="M229.3,311.6c0-4.9,0-9.8,0-14.6C230.5,301.9,230.5,306.7,229.3,311.6z"/>
	<path class="st26" d="M215.3,296.8c-0.4,4.6,1,9.4-0.9,13.9C214.7,306.1,212.9,301.3,215.3,296.8z"/>
	<path class="st27" d="M402.5,339.8c3.6,0.5,5.7,2.6,6.3,6.2C406.6,344,404.6,341.9,402.5,339.8z"/>
	<path class="st13" d="M154.4,360.6c-3.3,1.5-6.6,1.5-10,0C147.8,360.2,151.1,360.2,154.4,360.6z"/>
	<path class="st28" d="M423.8,427.4c0-3,0-6,0-9c0.3-0.4,0.6-0.4,0.9,0c0,3,0,6,0,9C424.4,427.9,424.1,427.9,423.8,427.4z"/>
	<path class="st29" d="M326.1,339.4c3-0.9,6-1.5,8.9,0.4C332,339.6,329.1,339.5,326.1,339.4z"/>
	<path class="st30" d="M452.9,450.4c-1.5-1.6-2-3.1,0.6-4C453.3,447.7,454,449.2,452.9,450.4z"/>
	<path class="st31" d="M441.7,442.6c-1.3,0.9-2.7,1.8-4,2.7C437.1,441.4,439.6,442.4,441.7,442.6z"/>
	<path class="st32" d="M423.8,440.4c-1.8-2-0.8-4,0.1-6c0.3-0.4,0.6-0.4,0.9,0C424.4,436.4,424.1,438.4,423.8,440.4z"/>
	<path class="st29" d="M424.7,434.4l-0.4,0c0,0-0.4,0-0.4,0c0-2.3,0-4.6,0-7c0.3,0,0.6,0,0.9,0C424.7,429.8,424.7,432.1,424.7,434.4
		z"/>
	<path class="st13" d="M424.7,418.4c-0.3,0-0.6,0-0.9,0c0.3-2.3-0.8-4.8,0.8-6.9C424.7,413.8,424.7,416.1,424.7,418.4z"/>
	<path class="st33" d="M421.6,450.3c-1.1-1.3-1-2.7-0.1-4.7c0.2,1.4,0.3,2.2,0.4,2.9C421.8,449.1,421.7,449.7,421.6,450.3z"/>
	<path class="st29" d="M359.8,430.4c-0.9-1.3-1.8-2.6,0.3-3.6C360,427.9,359.9,429.2,359.8,430.4z"/>
	<path class="st13" d="M360,419.4c-0.3,0.2-0.2,1.8-0.8,0.7c-0.6-1-0.5-2.6,0.7-3.6C359.9,417.5,359.9,418.4,360,419.4z"/>
	<path class="st34" d="M423.9,409.4c-2.3-0.8-0.5-2.7-1-4C424.9,406.3,423.8,408,423.9,409.4z"/>
	<path class="st35" d="M339,552.1c1.3-2,2.6-1,4-0.1C341.6,552,340.3,552,339,552.1z"/>
	<path class="st36" d="M408.8,431.3c1.4,1.1,1.3,2.5,0.5,4.8C409,434,408.9,432.6,408.8,431.3C408.8,431.3,408.8,431.3,408.8,431.3z
		"/>
	<path class="st37" d="M409.4,410c0.5,1.6,0.6,2.6,0.1,3.6C408.6,412.5,408.9,411.5,409.4,410z"/>
	<path class="st38" d="M221.8,411.8c-1.3-6.2,3.5-4.2,6.5-4.3c3.6-0.1,8.3-0.3,7.8,5c-0.6,6.2-6.2,4.4-10.2,5
		C220.8,418.3,221.7,414.9,221.8,411.8z"/>
	<path class="st16" d="M185.4,385.5c0-7.3,0-14.6,0-21.9c0.3,0,0.7,0,1,0c0,7.3,0,14.6,0,21.9l0,0
		C186.1,385.5,185.7,385.5,185.4,385.5z"/>
	<path class="st39" d="M186.4,385.5c6.2,0,12.4,0,18.7,0C198.8,386,192.6,387.6,186.4,385.5C186.4,385.5,186.4,385.5,186.4,385.5z"
		/>
	<path class="st2" d="M290.1,479.2c0,3.8-0.1,7.6,0,11.4c0.1,2.4-0.6,3.7-3.3,3.6c-7.8-0.1-15.6-0.1-23.4,0c-2.3,0-3.3-0.9-3.3-3.2
		c0.1-7.8,0.1-15.6,0-23.4c0-2.2,0.6-3.4,3.1-3.4c8,0.1,15.9,0.1,23.9,0c2.5,0,3,1.3,3,3.5C290.1,471.6,290.1,475.4,290.1,479.2z"/>
	<path class="st1" d="M245.2,499.2c-4.3,0-8.6,0-13,0c0-3.8,0.1-7.6,0-11.3c-0.1-2.4,0.6-3.5,3.3-3.7c9.7-0.6,9.7-0.8,9.7,9.1
		C245.2,495.3,245.2,497.2,245.2,499.2z"/>
</g>
</svg>
